# xmcd CD database file
#
# Track frame offsets:
#	150
#	55094
#	118115
#	160930
#	210409
#	270708
#
# Disc length: 4389 seconds
#
# Revision: 0
# Processed by: cddbd v1.5.2PL0 Copyright (c) Steve Scherf et al.
# Submitted via: CDex 1.51
#
DISCID=4e112306
DTITLE=Andy Narell - Tatoom
DYEAR=2006
DGENRE=Jazz
TTITLE0=Izo's Mood
TTITLE1=Tatoom
TTITLE2=Baby Steps
TTITLE3=Tabanca
TTITLE4=Blue Mazooka
TTITLE5=Appreciation
EXTD=YEAR: 2006
EXTT0=
EXTT1=
EXTT2=
EXTT3=
EXTT4=
EXTT5=
PLAYORDER=
